<svg width="235" height="111" viewBox="0 0 235 111" fill="none" xmlns="http://www.w3.org/2000/svg">
<path d="M49.5759 102.308L15.7428 102.308C13.7339 102.305 11.8079 101.506 10.3874 100.085C8.96681 98.6645 8.16754 96.7386 8.16484 94.7296L8.16484 59.6616L-2.49315e-06 53.4359L-6.88141e-07 94.7296C0.00472673 98.9034 1.66486 102.905 4.61619 105.856C7.56752 108.808 11.569 110.468 15.7428 110.472L49.5759 110.472C53.7497 110.468 57.7512 108.808 60.7026 105.856C63.6539 102.905 65.314 98.9034 65.3188 94.7296L65.3188 70.0182C64.6967 70.0979 64.0658 70.0755 63.451 69.9518L63.2597 69.9135L63.0734 69.86L57.1539 68.2015L57.1539 94.7296C57.1512 96.7386 56.3519 98.6645 54.9314 100.085C53.5108 101.506 51.5849 102.305 49.5759 102.308V102.308Z" fill="black"/>
<path d="M-1.82597e-06 15.99L-7.25839e-07 41.1581C0.612123 41.0831 1.2323 41.1063 1.83709 41.227L2.0259 41.2653L2.21216 41.3189L8.16484 42.9876L8.16484 15.99C8.16754 13.981 8.9668 12.0551 10.3874 10.6345C11.8079 9.21395 13.7339 8.41468 15.7428 8.41198L49.5759 8.41198C51.5849 8.41468 53.5108 9.21395 54.9314 10.6345C56.3519 12.0551 57.1512 13.981 57.1539 15.99L57.1539 51.5326L65.3188 57.7634L65.3188 15.99C65.314 11.8162 63.6539 7.81466 60.7026 4.86333C57.7512 1.912 53.7497 0.251865 49.5759 0.247138L15.7428 0.24714C11.569 0.251867 7.56752 1.912 4.61619 4.86333C1.66486 7.81467 0.00472523 11.8162 -1.82597e-06 15.99V15.99Z" fill="black"/>
<path d="M42.3958 73.0544C42.3961 74.1864 42.0873 75.297 41.5027 76.2664C40.9182 77.2358 40.0801 78.0273 39.0789 78.5554C38.0517 79.1018 36.8947 79.3568 35.7331 79.293C34.5714 79.2291 33.4494 78.8488 32.4883 78.1931L32.3709 78.114L32.2587 78.0298L14.0332 64.1317L14.0332 91.6702C14.0332 93.0236 14.5708 94.3216 15.5278 95.2786C16.4848 96.2356 17.7828 96.7732 19.1362 96.7732L46.1823 96.7732C47.5357 96.7732 48.8337 96.2356 49.7907 95.2786C50.7477 94.3216 51.2853 93.0236 51.2853 91.6702L51.2853 66.5582L42.3907 64.0628L42.3958 73.0544Z" fill="black"/>
<path d="M39.0097 44.115L29.9544 37.2081C29.8067 37.1108 29.641 37.044 29.467 37.0116C29.4114 37.0011 29.3552 36.9943 29.2986 36.9912C29.1885 36.9837 29.0779 36.9906 28.9695 37.0116C28.8112 37.0414 28.6598 37.1002 28.523 37.1851C28.4339 37.2407 28.3524 37.3076 28.2806 37.3841C28.2447 37.422 28.2123 37.463 28.1836 37.5066C28.1224 37.5932 28.0751 37.6887 28.0433 37.7898C28.009 37.8979 27.9918 38.0107 27.9923 38.1241L27.9923 53.8465L16.9672 50.7541L14.0329 49.9299L8.37878 48.3454L7.9093 48.2153L0.826297 46.2277C0.779927 46.2198 0.733003 46.2155 0.685963 46.2149C0.670654 46.2149 0.657895 46.2149 0.645138 46.2149C0.63238 46.2149 0.578797 46.2149 0.548179 46.2277C0.517561 46.2404 0.525215 46.2277 0.512458 46.2277C0.472715 46.2379 0.434213 46.2525 0.39764 46.2711C0.363127 46.2911 0.329893 46.3133 0.298131 46.3374L0.272619 46.3604C0.251752 46.3804 0.23215 46.4017 0.213931 46.4242L0.193518 46.4497C0.170712 46.4813 0.150248 46.5146 0.132285 46.5492C0.116625 46.5827 0.104648 46.6177 0.0965636 46.6538L0.0965636 46.687L0.0965636 46.7712L0.0965636 46.8043C0.0928105 46.8425 0.0928105 46.881 0.0965636 46.9192C0.10507 46.9563 0.117915 46.9922 0.134835 47.0263L0.152697 47.0595L0.206277 47.136L0.231794 47.1641C0.263059 47.1986 0.298158 47.2294 0.336407 47.2559L6.36563 51.8487L10.7593 55.2014L14.0329 57.7146L35.3508 73.9703C35.4158 74.0131 35.484 74.0506 35.555 74.0826C35.6437 74.1234 35.7371 74.1533 35.8331 74.1719C35.9413 74.1938 36.0521 74.2007 36.1622 74.1923C36.3482 74.1837 36.5298 74.1334 36.6937 74.0451C36.8576 73.9567 36.9995 73.8326 37.1088 73.682C37.1382 73.6378 37.1646 73.5918 37.1879 73.5442C37.2606 73.3939 37.2982 73.2289 37.2976 73.062L37.2976 57.3395L64.4508 64.9481C64.4984 64.9518 64.5462 64.9518 64.5937 64.9481C64.5937 64.9481 64.6192 64.9481 64.632 64.9481C64.6647 64.9457 64.6971 64.9406 64.729 64.9328C64.7408 64.9343 64.7528 64.9343 64.7647 64.9328C64.8044 64.9226 64.8429 64.9081 64.8795 64.8895C64.9132 64.8694 64.9456 64.8473 64.9765 64.8231L65.002 64.8002L65.0632 64.7364C65.0686 64.7268 65.0755 64.7182 65.0836 64.7109C65.1065 64.6798 65.1262 64.6464 65.1423 64.6113C65.1569 64.5774 65.1688 64.5425 65.178 64.5067L65.178 64.4736C65.1805 64.4456 65.1805 64.4174 65.178 64.3894L65.178 64.3562C65.1767 64.3175 65.1716 64.2791 65.1627 64.2414C65.1529 64.2051 65.1392 64.1701 65.1219 64.1368L65.104 64.1036L65.0505 64.027L65.0275 63.999C64.9962 63.9645 64.9611 63.9337 64.9229 63.9071L57.1535 57.957L51.285 53.4842L39.0097 44.115Z" fill="black"/>
<path d="M32.8965 33.0342L33.0496 33.1516L51.2853 47.065L51.2853 19.0493C51.2853 17.6959 50.7477 16.398 49.7907 15.441C48.8337 14.4839 47.5357 13.9463 46.1823 13.9463L19.1362 13.9463C17.7828 13.9463 16.4848 14.484 15.5278 15.441C14.5708 16.398 14.0332 17.6959 14.0332 19.0493L14.0332 44.6308L22.8946 47.116L22.8946 38.1245C22.8932 37.0031 23.1954 35.9022 23.769 34.9387C24.3427 33.9751 25.1664 33.1848 26.1529 32.6515C27.1709 32.0971 28.3199 31.8282 29.4782 31.8731C30.6365 31.918 31.7612 32.2751 32.7332 32.9066L32.8965 33.0342Z" fill="black"/>
<path d="M134.196 102.308L100.363 102.308C98.354 102.305 96.4281 101.506 95.0075 100.085C93.5869 98.6645 92.7877 96.7386 92.785 94.7296L92.785 59.6616L84.6201 53.4359L84.6201 94.7296C84.6248 98.9034 86.285 102.905 89.2363 105.856C92.1876 108.808 96.1891 110.468 100.363 110.472L134.196 110.472C138.37 110.468 142.371 108.808 145.323 105.856C148.274 102.905 149.934 98.9034 149.939 94.7296L149.939 70.0182C149.317 70.0979 148.686 70.0755 148.071 69.9518L147.88 69.9135L147.694 69.86L141.774 68.2015L141.774 94.7296C141.771 96.7386 140.972 98.6645 139.551 100.085C138.131 101.506 136.205 102.305 134.196 102.308V102.308Z" fill="black"/>
<path d="M84.6201 15.99L84.6201 41.1581C85.2322 41.0831 85.8524 41.1063 86.4572 41.227L86.646 41.2653L86.8323 41.3189L92.785 42.9876L92.785 15.99C92.7877 13.981 93.5869 12.0551 95.0075 10.6345C96.4281 9.21395 98.354 8.41468 100.363 8.41198L134.196 8.41198C136.205 8.41468 138.131 9.21395 139.551 10.6345C140.972 12.0551 141.771 13.981 141.774 15.99L141.774 51.5326L149.939 57.7634L149.939 15.99C149.934 11.8162 148.274 7.81466 145.323 4.86333C142.371 1.912 138.37 0.251865 134.196 0.247138L100.363 0.24714C96.1891 0.251867 92.1876 1.912 89.2363 4.86333C86.285 7.81467 84.6248 11.8162 84.6201 15.99V15.99Z" fill="black"/>
<path d="M127.016 73.0544C127.016 74.1864 126.707 75.297 126.123 76.2664C125.538 77.2358 124.7 78.0273 123.699 78.5554C122.672 79.1018 121.515 79.3568 120.353 79.293C119.192 79.2291 118.069 78.8488 117.108 78.1931L116.991 78.114L116.879 78.0298L98.6533 64.1317L98.6533 91.6702C98.6533 93.0236 99.191 94.3216 100.148 95.2786C101.105 96.2356 102.403 96.7732 103.756 96.7732L130.802 96.7732C132.156 96.7732 133.454 96.2356 134.411 95.2786C135.368 94.3216 135.905 93.0236 135.905 91.6702L135.905 66.5582L127.011 64.0628L127.016 73.0544Z" fill="black"/>
<path d="M123.63 44.115L114.574 37.2081C114.427 37.1108 114.261 37.044 114.087 37.0116C114.032 37.0011 113.975 36.9943 113.919 36.9912C113.809 36.9837 113.698 36.9906 113.59 37.0116C113.431 37.0414 113.28 37.1002 113.143 37.1851C113.054 37.2407 112.973 37.3076 112.901 37.3841C112.865 37.422 112.832 37.463 112.804 37.5066C112.743 37.5932 112.695 37.6887 112.663 37.7898C112.629 37.8979 112.612 38.0107 112.612 38.1241L112.612 53.8465L101.587 50.7541L98.653 49.9299L92.9989 48.3454L92.5294 48.2153L85.4464 46.2277C85.4 46.2198 85.3531 46.2155 85.3061 46.2149C85.2908 46.2149 85.278 46.2149 85.2653 46.2149C85.2525 46.2149 85.1989 46.2149 85.1683 46.2277C85.1377 46.2404 85.1453 46.2277 85.1326 46.2277C85.0928 46.2379 85.0543 46.2525 85.0178 46.2711C84.9832 46.2911 84.95 46.3133 84.9182 46.3374L84.8927 46.3604C84.8719 46.3804 84.8523 46.4017 84.834 46.4242L84.8136 46.4497C84.7908 46.4813 84.7704 46.5146 84.7524 46.5492C84.7367 46.5827 84.7248 46.6177 84.7167 46.6538L84.7167 46.687L84.7167 46.7712L84.7167 46.8043C84.7129 46.8425 84.7129 46.881 84.7167 46.9192C84.7252 46.9563 84.738 46.9922 84.755 47.0263L84.7728 47.0595L84.8264 47.136L84.8519 47.1641C84.8832 47.1986 84.9183 47.2294 84.9565 47.2559L90.9857 51.8487L95.3795 55.2014L98.653 57.7146L119.971 73.9703C120.036 74.0131 120.104 74.0506 120.175 74.0826C120.264 74.1234 120.357 74.1533 120.453 74.1719C120.561 74.1938 120.672 74.2007 120.782 74.1923C120.968 74.1837 121.15 74.1334 121.314 74.0451C121.478 73.9567 121.62 73.8326 121.729 73.682C121.758 73.6378 121.785 73.5918 121.808 73.5442C121.881 73.3939 121.918 73.2289 121.918 73.062L121.918 57.3395L149.071 64.9481C149.119 64.9518 149.166 64.9518 149.214 64.9481C149.214 64.9481 149.239 64.9481 149.252 64.9481C149.285 64.9457 149.317 64.9406 149.349 64.9328C149.361 64.9343 149.373 64.9343 149.385 64.9328C149.425 64.9226 149.463 64.9081 149.5 64.8895C149.533 64.8694 149.566 64.8473 149.597 64.8231L149.622 64.8002L149.683 64.7364C149.689 64.7268 149.696 64.7182 149.704 64.7109C149.727 64.6798 149.746 64.6464 149.762 64.6113C149.777 64.5774 149.789 64.5425 149.798 64.5067L149.798 64.4736C149.801 64.4456 149.801 64.4174 149.798 64.3894L149.798 64.3562C149.797 64.3175 149.792 64.2791 149.783 64.2414C149.773 64.2051 149.759 64.1701 149.742 64.1368L149.724 64.1036L149.671 64.027L149.648 63.999C149.616 63.9645 149.581 63.9337 149.543 63.9071L141.774 57.957L135.905 53.4842L123.63 44.115Z" fill="black"/>
<path d="M117.517 33.0342L117.67 33.1516L135.905 47.065L135.905 19.0493C135.905 17.6959 135.368 16.398 134.411 15.441C133.454 14.4839 132.156 13.9463 130.802 13.9463L103.756 13.9463C102.403 13.9463 101.105 14.484 100.148 15.441C99.191 16.398 98.6533 17.6959 98.6533 19.0493L98.6533 44.6308L107.515 47.116L107.515 38.1245C107.513 37.0031 107.816 35.9022 108.389 34.9387C108.963 33.9751 109.787 33.1848 110.773 32.6515C111.791 32.0971 112.94 31.8282 114.098 31.8731C115.257 31.918 116.381 32.2751 117.353 32.9066L117.517 33.0342Z" fill="black"/>
<path d="M218.817 102.308L184.984 102.308C182.975 102.305 181.049 101.506 179.629 100.085C178.208 98.6645 177.409 96.7386 177.406 94.7296L177.406 59.6616L169.241 53.4359L169.241 94.7296C169.246 98.9034 170.906 102.905 173.857 105.856C176.809 108.808 180.81 110.468 184.984 110.472L218.817 110.472C222.991 110.468 226.992 108.808 229.944 105.856C232.895 102.905 234.555 98.9034 234.56 94.7296L234.56 70.0182C233.938 70.0979 233.307 70.0755 232.692 69.9518L232.501 69.9135L232.315 69.86L226.395 68.2015L226.395 94.7296C226.392 96.7386 225.593 98.6645 224.173 100.085C222.752 101.506 220.826 102.305 218.817 102.308V102.308Z" fill="black"/>
<path d="M169.241 15.99L169.241 41.1581C169.853 41.0831 170.474 41.1063 171.078 41.227L171.267 41.2653L171.453 41.3189L177.406 42.9876L177.406 15.99C177.409 13.981 178.208 12.0551 179.629 10.6345C181.049 9.21395 182.975 8.41468 184.984 8.41198L218.817 8.41198C220.826 8.41468 222.752 9.21395 224.173 10.6345C225.593 12.0551 226.392 13.981 226.395 15.99L226.395 51.5326L234.56 57.7634L234.56 15.99C234.555 11.8162 232.895 7.81466 229.944 4.86333C226.992 1.912 222.991 0.251865 218.817 0.247138L184.984 0.24714C180.81 0.251867 176.809 1.912 173.857 4.86333C170.906 7.81467 169.246 11.8162 169.241 15.99V15.99Z" fill="black"/>
<path d="M211.637 73.0544C211.637 74.1864 211.328 75.297 210.744 76.2664C210.159 77.2358 209.321 78.0273 208.32 78.5554C207.293 79.1018 206.136 79.3568 204.974 79.293C203.813 79.2291 202.691 78.8488 201.73 78.1931L201.612 78.114L201.5 78.0298L183.274 64.1317L183.274 91.6702C183.274 93.0236 183.812 94.3216 184.769 95.2786C185.726 96.2356 187.024 96.7732 188.377 96.7732L215.423 96.7732C216.777 96.7732 218.075 96.2356 219.032 95.2786C219.989 94.3216 220.527 93.0236 220.527 91.6702L220.527 66.5582L211.632 64.0628L211.637 73.0544Z" fill="black"/>
<path d="M208.251 44.115L199.196 37.2081C199.048 37.1108 198.882 37.044 198.708 37.0116C198.653 37.0011 198.596 36.9943 198.54 36.9912C198.43 36.9837 198.319 36.9906 198.211 37.0116C198.052 37.0414 197.901 37.1002 197.764 37.1851C197.675 37.2407 197.594 37.3076 197.522 37.3841C197.486 37.422 197.453 37.463 197.425 37.5066C197.364 37.5932 197.316 37.6887 197.285 37.7898C197.25 37.8979 197.233 38.0107 197.233 38.1241L197.233 53.8465L186.208 50.7541L183.274 49.9299L177.62 48.3454L177.151 48.2153L170.068 46.2277C170.021 46.2198 169.974 46.2155 169.927 46.2149C169.912 46.2149 169.899 46.2149 169.886 46.2149C169.874 46.2149 169.82 46.2149 169.789 46.2277C169.759 46.2404 169.766 46.2277 169.754 46.2277C169.714 46.2379 169.675 46.2525 169.639 46.2711C169.604 46.2911 169.571 46.3133 169.539 46.3374L169.514 46.3604C169.493 46.3804 169.473 46.4017 169.455 46.4242L169.435 46.4497C169.412 46.4813 169.391 46.5146 169.373 46.5492C169.358 46.5827 169.346 46.6177 169.338 46.6538L169.338 46.687L169.338 46.7712L169.338 46.8043C169.334 46.8425 169.334 46.881 169.338 46.9192C169.346 46.9563 169.359 46.9922 169.376 47.0263L169.394 47.0595L169.447 47.136L169.473 47.1641C169.504 47.1986 169.539 47.2294 169.578 47.2559L175.607 51.8487L180.001 55.2014L183.274 57.7146L204.592 73.9703C204.657 74.0131 204.725 74.0506 204.796 74.0826C204.885 74.1234 204.978 74.1533 205.074 74.1719C205.183 74.1938 205.293 74.2007 205.403 74.1923C205.589 74.1837 205.771 74.1334 205.935 74.0451C206.099 73.9567 206.241 73.8326 206.35 73.682C206.379 73.6378 206.406 73.5918 206.429 73.5442C206.502 73.3939 206.539 73.2289 206.539 73.062L206.539 57.3395L233.692 64.9481C233.74 64.9518 233.787 64.9518 233.835 64.9481C233.835 64.9481 233.86 64.9481 233.873 64.9481C233.906 64.9457 233.938 64.9406 233.97 64.9328C233.982 64.9343 233.994 64.9343 234.006 64.9328C234.046 64.9226 234.084 64.9081 234.121 64.8895C234.154 64.8694 234.187 64.8473 234.218 64.8231L234.243 64.8002L234.304 64.7364C234.31 64.7268 234.317 64.7182 234.325 64.7109C234.348 64.6798 234.367 64.6464 234.384 64.6113C234.398 64.5774 234.41 64.5425 234.419 64.5067L234.419 64.4736C234.422 64.4456 234.422 64.4174 234.419 64.3894L234.419 64.3562C234.418 64.3175 234.413 64.2791 234.404 64.2414C234.394 64.2051 234.38 64.1701 234.363 64.1368L234.345 64.1036L234.292 64.027L234.269 63.999C234.237 63.9645 234.202 63.9337 234.164 63.9071L226.395 57.957L220.526 53.4842L208.251 44.115Z" fill="black"/>
<path d="M202.138 33.0342L202.291 33.1516L220.527 47.065L220.527 19.0493C220.527 17.6959 219.989 16.398 219.032 15.441C218.075 14.4839 216.777 13.9463 215.423 13.9463L188.377 13.9463C187.024 13.9463 185.726 14.484 184.769 15.441C183.812 16.398 183.274 17.6959 183.274 19.0493L183.274 44.6308L192.136 47.116L192.136 38.1245C192.134 37.0031 192.437 35.9022 193.01 34.9387C193.584 33.9751 194.408 33.1848 195.394 32.6515C196.412 32.0971 197.561 31.8282 198.719 31.8731C199.878 31.918 201.002 32.2751 201.974 32.9066L202.138 33.0342Z" fill="black"/>
</svg>
