<svg width="336" height="170" viewBox="0 0 336 170" fill="none" xmlns="http://www.w3.org/2000/svg">
<path d="M30.8753 71.2004C28.6942 71.2004 26.5621 71.8472 24.7485 73.0589C22.935 74.2707 21.5216 75.993 20.6869 78.0081C19.8522 80.0232 19.6338 82.2405 20.0593 84.3797C20.4849 86.5189 21.5352 88.4838 23.0774 90.0261C24.6197 91.5684 26.5847 92.6187 28.7239 93.0442C30.8631 93.4697 33.0804 93.2513 35.0955 92.4166C37.1105 91.582 38.8329 90.1685 40.0446 88.355C41.2564 86.5415 41.9031 84.4093 41.9031 82.2282C41.8944 79.3062 40.7297 76.5063 38.6635 74.44C36.5973 72.3738 33.7974 71.2091 30.8753 71.2004V71.2004ZM54.6844 82.2282C54.6787 83.2587 54.6031 84.2875 54.4583 85.3078L61.1702 90.5625C61.4625 90.8039 61.6595 91.1414 61.7259 91.5146C61.7923 91.8878 61.7238 92.2725 61.5327 92.5999L55.1834 103.562C54.9904 103.886 54.6891 104.132 54.3326 104.256C53.9761 104.381 53.5872 104.375 53.2342 104.241L45.3424 101.071C43.6991 102.336 41.9008 103.386 39.9912 104.196L38.8112 112.574C38.7452 112.949 38.5508 113.29 38.2614 113.538C37.9721 113.786 37.6056 113.926 37.2246 113.933H24.526C24.152 113.926 23.7914 113.792 23.5033 113.554C23.2151 113.315 23.0163 112.986 22.9394 112.62L21.7594 104.241C19.8445 103.441 18.0449 102.389 16.4081 101.113L8.51634 104.284C8.16356 104.418 7.77474 104.424 7.41824 104.3C7.06175 104.176 6.76039 103.93 6.56716 103.606L0.217881 92.6454C0.0267654 92.318 -0.0417026 91.9333 0.0247121 91.5601C0.0911268 91.1869 0.288096 90.8494 0.580422 90.608L7.29224 85.3533C7.14909 84.3176 7.07357 83.2737 7.06617 82.2282C7.07191 81.1978 7.14744 80.1689 7.29224 79.1487L0.580422 73.894C0.288096 73.6526 0.0911268 73.3151 0.0247121 72.9419C-0.0417026 72.5686 0.0267654 72.184 0.217881 71.8566L6.56716 60.8949C6.76018 60.5704 7.06144 60.3243 7.41796 60.2C7.77448 60.0757 8.16341 60.0811 8.51634 60.2153L16.4081 63.3858C18.0515 62.1204 19.8498 61.0702 21.7594 60.2608L22.9394 51.8824C23.0054 51.5071 23.1997 51.1664 23.4891 50.9185C23.7785 50.6706 24.145 50.5308 24.526 50.5232H37.2246C37.5986 50.5305 37.9592 50.6643 38.2473 50.9029C38.5355 51.1415 38.7343 51.4708 38.8112 51.8369L39.9912 60.2153C41.9085 61.0148 43.7104 62.0667 45.3493 63.3431L53.2342 60.1726C53.587 60.0383 53.9758 60.0327 54.3323 60.1567C54.6888 60.2808 54.9902 60.5265 55.1834 60.8508L61.5327 71.8124C61.7238 72.1398 61.7923 72.5245 61.7259 72.8978C61.6595 73.271 61.4625 73.6085 61.1702 73.8498L54.4583 79.1046C54.6014 80.1398 54.677 81.1832 54.6844 82.2282V82.2282Z" fill="black"/>
<path d="M72.0423 126.402C69.8612 126.402 67.7291 127.048 65.9155 128.26C64.102 129.472 62.6886 131.194 61.8539 133.209C61.0192 135.224 60.8008 137.442 61.2263 139.581C61.6518 141.72 62.7021 143.685 64.2444 145.227C65.7867 146.77 67.7517 147.82 69.8909 148.245C72.03 148.671 74.2474 148.452 76.2625 147.618C78.2775 146.783 79.9998 145.37 81.2116 143.556C82.4234 141.743 83.0701 139.611 83.0701 137.429C83.0614 134.507 81.8967 131.707 79.8305 129.641C77.7643 127.575 74.9644 126.41 72.0423 126.402V126.402ZM95.8514 137.429C95.8457 138.46 95.7701 139.489 95.6253 140.509L102.337 145.764C102.629 146.005 102.826 146.343 102.893 146.716C102.959 147.089 102.891 147.474 102.7 147.801L96.3504 158.763C96.1574 159.087 95.8561 159.333 95.4996 159.458C95.1431 159.582 94.7542 159.577 94.4012 159.442L86.5094 156.272C84.8661 157.537 83.0678 158.587 81.1582 159.397L79.9782 167.775C79.9122 168.151 79.7178 168.491 79.4284 168.739C79.139 168.987 78.7725 169.127 78.3916 169.134H65.693C65.319 169.127 64.9584 168.993 64.6702 168.755C64.3821 168.516 64.1833 168.187 64.1064 167.821L62.9264 159.442C61.0115 158.642 59.2119 157.59 57.5751 156.315L49.6833 159.485C49.3306 159.619 48.9417 159.625 48.5852 159.501C48.2287 159.377 47.9274 159.131 47.7342 158.807L41.3849 147.847C41.1938 147.519 41.1253 147.135 41.1917 146.761C41.2581 146.388 41.4551 146.051 41.7474 145.809L48.4592 140.554C48.3161 139.519 48.2406 138.475 48.2332 137.429C48.2389 136.399 48.3144 135.37 48.4592 134.35L41.7474 129.095C41.4551 128.854 41.2581 128.516 41.1917 128.143C41.1253 127.77 41.1938 127.385 41.3849 127.058L47.7342 116.096C47.9272 115.772 48.2284 115.526 48.585 115.401C48.9415 115.277 49.3304 115.282 49.6833 115.416L57.5751 118.587C59.2184 117.322 61.0168 116.271 62.9264 115.462L64.1064 107.084C64.1724 106.708 64.3667 106.368 64.6561 106.12C64.9455 105.872 65.312 105.732 65.693 105.724H78.3916C78.7656 105.732 79.1262 105.866 79.4143 106.104C79.7025 106.343 79.9013 106.672 79.9782 107.038L81.1582 115.416C83.0755 116.216 84.8774 117.268 86.5163 118.544L94.4012 115.374C94.754 115.239 95.1428 115.234 95.4993 115.358C95.8558 115.482 96.1572 115.728 96.3504 116.052L102.7 127.014C102.891 127.341 102.959 127.726 102.893 128.099C102.826 128.472 102.629 128.81 102.337 129.051L95.6253 134.306C95.7684 135.341 95.8439 136.384 95.8514 137.429V137.429Z" fill="black"/>
<path d="M121.163 39.788C116.966 39.788 112.863 41.0325 109.373 43.3642C105.884 45.6959 103.164 49.0101 101.558 52.8876C99.9515 56.7651 99.5312 61.0318 100.35 65.1481C101.169 69.2644 103.19 73.0455 106.158 76.0132C109.125 78.9809 112.906 81.0019 117.023 81.8207C121.139 82.6395 125.406 82.2193 129.283 80.6132C133.161 79.0071 136.475 76.2872 138.807 72.7975C141.138 69.3079 142.383 65.2052 142.383 61.0082C142.366 55.3854 140.125 49.9977 136.149 46.0218C132.173 42.0458 126.785 39.8048 121.163 39.788V39.788ZM166.977 61.0082C166.966 62.991 166.821 64.9708 166.542 66.934L179.457 77.0454C180.02 77.5099 180.399 78.1592 180.527 78.8774C180.654 79.5956 180.523 80.3359 180.155 80.9659L167.937 102.059C167.566 102.683 166.986 103.157 166.3 103.396C165.614 103.635 164.866 103.625 164.187 103.366L149.001 97.2657C145.839 99.7007 142.378 101.721 138.704 103.279L136.433 119.401C136.306 120.123 135.932 120.779 135.375 121.256C134.818 121.733 134.113 122.002 133.38 122.016H108.945C108.225 122.002 107.531 121.745 106.977 121.286C106.422 120.827 106.04 120.193 105.892 119.489L103.621 103.366C99.9366 101.827 96.4737 99.803 93.3242 97.3479L78.1385 103.449C77.4597 103.707 76.7115 103.718 76.0255 103.479C75.3395 103.241 74.7596 102.768 74.3878 102.144L62.1702 81.0534C61.8025 80.4234 61.6707 79.6832 61.7985 78.965C61.9263 78.2468 62.3053 77.5974 62.8678 77.133L75.783 67.0215C75.5075 65.0287 75.3622 63.02 75.348 61.0082C75.359 59.0254 75.5044 57.0456 75.783 55.0825L62.8678 44.971C62.3053 44.5065 61.9263 43.8572 61.7985 43.139C61.6707 42.4208 61.8025 41.6806 62.1702 41.0506L74.3878 19.9576C74.7592 19.3332 75.3389 18.8598 76.0249 18.6206C76.711 18.3814 77.4594 18.3918 78.1385 18.6499L93.3242 24.7508C96.4863 22.3158 99.9468 20.295 103.621 18.7375L105.892 2.6154C106.019 1.89324 106.393 1.23763 106.95 0.760598C107.507 0.283565 108.212 0.0147182 108.945 0H133.38C134.1 0.0140094 134.794 0.271596 135.348 0.73071C135.903 1.18982 136.285 1.82335 136.433 2.52786L138.704 18.6499C142.393 20.1883 145.86 22.2124 149.014 24.6685L164.187 18.5677C164.865 18.3093 165.614 18.2985 166.3 18.5372C166.986 18.7759 167.565 19.2488 167.937 19.8728L180.155 40.9657C180.523 41.5957 180.654 42.3359 180.527 43.0541C180.399 43.7723 180.02 44.4217 179.457 44.8861L166.542 54.9976C166.817 56.9896 166.963 58.9973 166.977 61.0082V61.0082Z" fill="black"/>
<path d="M287.071 55.9888C287.065 57.6728 286.394 59.2863 285.203 60.4771C284.012 61.6678 282.399 62.3392 280.715 62.3446L273.251 62.3446C271.566 62.3401 269.952 61.6689 268.76 60.4776C267.569 59.2864 266.898 57.672 266.893 55.9874L266.889 39.0886C266.89 39.0558 266.882 39.0234 266.867 38.9942C266.852 38.965 266.831 38.94 266.804 38.9213C266.777 38.9027 266.745 38.891 266.713 38.8874C266.68 38.8837 266.647 38.8882 266.617 38.9004C258.827 42.0158 252.949 50.2763 252.916 59.2222C252.884 67.7804 259.052 74.4368 266.221 78.4596C267.24 79.0315 268.081 79.8738 268.651 80.8935C269.222 81.9131 269.5 83.0706 269.454 84.2382L267.424 129.01C267.346 130.312 267.535 131.617 267.98 132.844C268.424 134.071 269.115 135.194 270.01 136.144C270.904 137.094 271.984 137.851 273.182 138.368C274.38 138.886 275.671 139.152 276.976 139.152C278.281 139.152 279.572 138.886 280.77 138.368C281.968 137.851 283.047 137.094 283.942 136.144C284.836 135.194 285.527 134.071 285.972 132.844C286.416 131.617 286.605 130.312 286.527 129.01L284.681 83.9418C284.639 82.7916 284.91 81.6515 285.466 80.6437C286.022 79.6358 286.842 78.7983 287.837 78.2209C294.879 74.1545 300.92 67.5543 300.975 59.1309C301.044 50.0726 294.084 41.1435 287.325 38.8091C287.295 38.7992 287.263 38.7965 287.232 38.8012C287.201 38.806 287.172 38.818 287.146 38.8364C287.121 38.8548 287.1 38.879 287.085 38.9069C287.071 38.9349 287.064 38.9659 287.064 38.9973L287.071 55.9888Z" stroke="black" stroke-width="7" stroke-miterlimit="10" stroke-linecap="round"/>
<path d="M279.223 131.819C280.464 130.578 280.464 128.565 279.223 127.324C277.981 126.083 275.969 126.083 274.728 127.324C273.487 128.565 273.487 130.578 274.728 131.819C275.969 133.06 277.981 133.06 279.223 131.819Z" fill="black"/>
<path d="M220.447 77.2993C219.973 77.1612 219.482 77.0897 218.988 77.0869L213.42 77.1251C212.839 77.1199 212.262 77.223 211.718 77.4292C210.866 77.7559 210.132 78.3329 209.613 79.0845C209.095 79.836 208.816 80.7269 208.813 81.64C208.798 83.5689 208.764 87.0934 208.726 93.4746C208.66 105.685 207.44 127.26 206.627 136.755C206.585 137.232 206.642 137.712 206.795 138.166C206.948 138.62 207.194 139.037 207.516 139.391C207.839 139.745 208.231 140.028 208.669 140.222C209.107 140.416 209.58 140.518 210.059 140.519L222.046 140.585C222.527 140.586 223.003 140.487 223.443 140.295C223.884 140.103 224.281 139.822 224.608 139.47C224.935 139.117 225.185 138.701 225.344 138.247C225.502 137.793 225.565 137.311 225.528 136.831C224.744 127.109 223.587 105.453 223.658 93.389C223.709 87.2065 223.695 83.6988 223.712 81.7379C223.704 80.7487 223.384 79.7873 222.798 78.9905C222.211 78.1936 221.389 77.6019 220.447 77.2993V77.2993Z" stroke="black" stroke-width="7" stroke-linecap="round" stroke-linejoin="round"/>
<path d="M244.141 39.5462L233.7 39.5935C233.54 39.5936 233.382 39.6263 233.235 39.6896C233.088 39.753 232.955 39.8456 232.846 39.9619C232.731 40.0729 232.639 40.2056 232.576 40.3522C232.513 40.4989 232.479 40.6566 232.477 40.8163C232.478 41.1946 232.392 41.5681 232.226 41.9079C232.059 42.2477 231.817 42.5446 231.517 42.7757C230.758 43.3856 229.816 43.9022 228.89 43.9175C226.772 43.9389 225.945 40.639 223.683 40.2599C221.162 39.8901 218.618 39.7041 216.071 39.7036C213.922 39.7128 205.635 39.9084 195.578 44.1391C192.364 45.4849 189.444 47.4453 186.982 49.9104C182.955 53.9378 181.656 58.8318 181.558 60.993C181.472 62.7048 181.828 64.9317 181.828 64.9317C182.172 64.1947 182.56 63.4795 182.991 62.7904C183.909 61.3716 185.032 60.0959 186.322 59.0045C188.897 56.8235 192.879 55.0734 195.624 54.7433C200.088 54.2526 203.812 55.8453 207.408 59.1084C210.081 61.5371 210.852 67.2076 211.153 72.1581C211.179 72.5935 211.372 73.0021 211.692 73.2989C212.011 73.5958 212.433 73.7581 212.869 73.7523L219.36 73.7507C219.81 73.7479 220.24 73.5702 220.561 73.2552C220.882 72.9402 221.067 72.5127 221.078 72.0634C221.142 67.8694 221.479 62.9601 222.05 60.5574C222.622 58.1547 223.563 56.6966 224.077 56.0577C225.1 54.8158 226.485 53.9245 228.039 53.5083C228.31 53.433 228.591 53.3969 228.873 53.4013C230.863 53.4166 232.442 55.1147 232.425 57.1062L232.408 57.7008C232.407 57.8585 232.437 58.0149 232.497 58.1608C232.557 58.3068 232.645 58.4394 232.757 58.5509C232.868 58.6624 233.001 58.7506 233.147 58.8104C233.293 58.8702 233.449 58.9003 233.607 58.8991L244.047 58.8517C244.207 58.8505 244.365 58.8171 244.511 58.7535C244.658 58.69 244.79 58.5976 244.9 58.4818C245.131 58.2574 245.264 57.9509 245.27 57.6289L245.363 40.7689C245.354 40.4474 245.223 40.1415 244.995 39.9141C244.768 39.6867 244.462 39.5551 244.141 39.5462V39.5462Z" stroke="black" stroke-width="7" stroke-linecap="round" stroke-linejoin="round"/>
</svg>
