<svg width="249" height="246" viewBox="0 0 249 246" fill="none" xmlns="http://www.w3.org/2000/svg">
<path d="M124.687 0.000195468C104.883 -0.0346537 85.3573 4.5908 67.7309 13.4923C50.1045 22.3938 34.8864 35.3144 23.3409 51.1806C11.7955 67.0469 4.25592 85.4009 1.3486 104.718C-1.55871 124.035 0.250157 143.757 6.62492 162.246C12.9997 180.735 23.7563 197.457 38.0012 211.023C52.2462 224.589 69.5681 234.607 88.5281 240.246C107.488 245.884 127.539 246.98 147.014 243.442C166.49 239.904 184.829 231.834 200.506 219.903C199.428 219.97 198.345 219.884 197.291 219.647C196.428 219.355 195.659 218.844 195.061 218.164C194.63 217.715 194.279 217.196 194.024 216.63C193.798 216.041 193.675 215.419 193.661 214.789V208.857H199.21V213.408C199.188 214.037 199.35 214.658 199.676 215.198C199.85 215.475 200.096 215.701 200.387 215.854C200.679 216.007 201.006 216.08 201.336 216.068H201.803C202.177 216.023 202.533 215.882 202.834 215.657C203.135 215.432 203.37 215.133 203.514 214.789C203.566 214.279 203.566 213.765 203.514 213.255V210.749C203.484 209.892 203.175 209.067 202.632 208.397C201.925 207.516 201.125 206.71 200.247 205.993L199.728 205.482C197.752 204.04 196.004 202.316 194.542 200.368C193.697 198.797 193.303 197.029 193.401 195.254C193.327 193.739 193.63 192.229 194.283 190.856C194.727 189.915 195.451 189.131 196.357 188.605C197.025 188.213 197.739 187.904 198.484 187.685C199.451 187.453 200.445 187.35 201.44 187.378C203.249 187.244 205.057 187.654 206.626 188.554C207.361 189.135 207.932 189.892 208.285 190.753C208.595 191.588 208.736 192.474 208.7 193.361V197.964H203.514V193.566C203.534 192.994 203.35 192.433 202.996 191.981C202.799 191.788 202.564 191.638 202.304 191.541C202.045 191.444 201.768 191.402 201.492 191.418C200.888 191.421 200.309 191.66 199.884 192.083C199.605 192.425 199.397 192.817 199.272 193.239C199.147 193.66 199.109 194.101 199.158 194.538C199.116 195.771 199.422 196.993 200.039 198.066C201.177 199.559 202.542 200.87 204.085 201.953C205.79 203.146 207.221 204.679 208.285 206.453C209.057 208.227 209.412 210.15 209.322 212.079C209.322 212.079 209.322 212.437 209.322 212.59C227.614 195.806 240.359 173.982 245.9 149.957C251.442 125.932 249.522 100.818 240.391 77.8841C231.261 54.9497 215.342 35.256 194.706 21.3654C174.07 7.4747 149.672 0.0301138 124.687 0.000195468V0.000195468ZM113.174 69.5509C122.188 66.2199 131.904 65.1651 141.437 66.4825L120.693 86.9386H90.5626C95.9026 78.8118 103.871 72.7025 113.174 69.602V69.5509ZM61.7283 66.4825H86.9324L78.0124 86.9386H52.8084L61.7283 66.4825ZM84.3912 218.113C82.5504 219.443 80.2873 220.078 78.0124 219.903C76.771 219.955 75.5289 219.817 74.3304 219.494C73.5219 219.233 72.8034 218.755 72.2559 218.113C71.7684 217.561 71.3664 216.941 71.0632 216.272C70.7824 215.817 70.589 215.314 70.4927 214.789V208.857H76.0418V213.255C75.9697 213.983 76.1728 214.711 76.6122 215.301C76.8384 215.605 77.1519 215.836 77.5123 215.964C77.8728 216.092 78.2637 216.11 78.6348 216.017C79.0055 215.982 79.36 215.85 79.6611 215.634C79.9622 215.418 80.1988 215.126 80.3461 214.789C80.4192 214.28 80.4192 213.764 80.3461 213.255V210.698C80.309 209.858 80.0001 209.051 79.4645 208.397C78.5572 207.368 77.5874 206.394 76.5603 205.482C74.5846 204.039 72.8369 202.316 71.3743 200.368C70.5291 198.797 70.1346 197.029 70.2334 195.254C70.1595 193.739 70.4622 192.229 71.115 190.856C71.5861 189.933 72.3033 189.155 73.1894 188.605C73.8475 188.195 74.5642 187.885 75.3157 187.685C76.2821 187.449 77.2768 187.346 78.2717 187.378C80.0862 187.17 81.9179 187.585 83.4578 188.554C84.176 189.151 84.7441 189.903 85.1173 190.753C85.427 191.588 85.5679 192.474 85.5322 193.361V197.964H80.3461V193.873C80.3426 193.192 80.084 192.536 79.6201 192.032C79.4625 191.838 79.2659 191.679 79.0427 191.565C78.8195 191.451 78.5746 191.383 78.3236 191.367C78.021 191.34 77.7164 191.387 77.4362 191.503C77.1561 191.619 76.9088 191.8 76.7159 192.032C76.1712 192.732 75.9122 193.607 75.9899 194.486C75.9484 195.72 76.2535 196.941 76.8715 198.015C78.0091 199.508 79.3735 200.819 80.9166 201.902C82.6218 203.094 84.0531 204.628 85.1173 206.402C85.8892 208.176 86.2438 210.099 86.1545 212.028C86.3036 213.131 86.2242 214.253 85.9211 215.325C85.6181 216.398 85.0976 217.398 84.3912 218.267V218.113ZM97.5119 231.052H92.0147L94.6596 219.136L87.451 187.685H93.5705L97.6156 211.312L101.972 187.685H107.884L97.5119 231.052ZM123.079 218.113C121.19 219.509 118.843 220.165 116.493 219.954C115.251 220.006 114.009 219.868 112.811 219.545C111.966 219.273 111.213 218.777 110.633 218.113C110.177 217.576 109.809 216.972 109.543 216.323C109.315 215.84 109.175 215.321 109.129 214.789V208.857H114.678V213.408C114.661 214.036 114.823 214.656 115.144 215.198C115.321 215.469 115.568 215.688 115.86 215.832C116.152 215.976 116.478 216.04 116.804 216.017H117.271C117.658 215.995 118.032 215.869 118.352 215.652C118.672 215.436 118.926 215.138 119.086 214.789C119.169 214.281 119.169 213.763 119.086 213.255V211.312C119.135 210.269 118.824 209.242 118.204 208.397C117.495 207.516 116.696 206.711 115.819 205.993L115.3 205.482C113.324 204.039 111.576 202.316 110.114 200.368C109.269 198.797 108.874 197.029 108.973 195.254C108.899 193.739 109.202 192.229 109.855 190.856C110.336 189.94 111.051 189.165 111.929 188.605C112.662 188.16 113.47 187.848 114.315 187.685C115.295 187.424 116.308 187.304 117.322 187.327C119.127 187.174 120.936 187.566 122.508 188.452C123.264 189.079 123.866 189.865 124.272 190.753C124.562 191.609 124.685 192.511 124.635 193.413V198.015H119.501V193.566C119.551 193.248 119.521 192.923 119.412 192.619C119.303 192.316 119.12 192.044 118.878 191.827C118.686 191.667 118.463 191.548 118.222 191.478C117.981 191.407 117.727 191.387 117.478 191.418C117.177 191.407 116.878 191.461 116.6 191.576C116.322 191.691 116.073 191.864 115.87 192.083C115.591 192.425 115.383 192.817 115.258 193.239C115.134 193.66 115.095 194.101 115.144 194.538C115.103 195.771 115.408 196.993 116.026 198.066C117.164 199.559 118.528 200.87 120.071 201.953C121.776 203.146 123.208 204.679 124.272 206.453C125.044 208.227 125.398 210.15 125.309 212.079C125.395 213.202 125.245 214.331 124.871 215.395C124.496 216.46 123.904 217.437 123.131 218.267L123.079 218.113ZM139.985 219.903H135.577C134.09 220.042 132.598 219.701 131.325 218.931C130.659 218.549 130.147 217.953 129.873 217.244C129.588 216.351 129.466 215.417 129.51 214.482V192.134H126.242V187.838H129.613V181.497L135.37 179.502V187.838H139.57V192.083H135.37V213.153C135.359 213.487 135.423 213.819 135.555 214.127C135.688 214.434 135.888 214.709 136.139 214.933C136.391 215.157 136.689 215.324 137.013 215.423C137.337 215.522 137.679 215.55 138.015 215.505H140.037V219.903H139.985ZM159.018 194.333V205.533H147.557V212.744C147.455 213.302 147.455 213.873 147.557 214.431C147.706 214.883 147.997 215.277 148.387 215.556C148.965 215.902 149.63 216.079 150.306 216.068C150.693 216.083 151.08 216.018 151.44 215.875C151.8 215.733 152.126 215.517 152.395 215.241C152.665 214.966 152.872 214.638 153.003 214.278C153.135 213.918 153.187 213.534 153.158 213.153V209.164H158.759V212.744C158.778 214.067 158.495 215.378 157.929 216.579C157.326 217.69 156.382 218.585 155.232 219.136C153.444 219.936 151.489 220.305 149.528 220.21C147.336 220.341 145.178 219.626 143.512 218.216C142.77 217.502 142.192 216.639 141.816 215.687C141.44 214.734 141.276 213.713 141.334 212.692V198.373C141.091 195.562 141.667 192.741 142.993 190.242C143.695 189.337 144.609 188.613 145.657 188.132C146.705 187.651 147.855 187.427 149.009 187.48H151.291C152.894 187.375 154.49 187.769 155.855 188.605C156.616 189.076 157.266 189.703 157.758 190.445C158.251 191.186 158.574 192.024 158.707 192.901C159.018 193.515 158.966 193.924 158.966 194.333H159.018ZM190.134 219.903H184.43V194.333C184.465 193.977 184.428 193.617 184.321 193.274C184.214 192.932 184.039 192.614 183.807 192.339C183.312 191.894 182.662 191.656 181.992 191.674C179.918 191.674 179.347 192.339 179.295 195.254V219.903H173.28V194.333C173.276 193.92 173.164 193.514 172.955 193.156C172.746 192.798 172.447 192.498 172.087 192.287C171.545 192.134 170.97 192.134 170.427 192.287C169.797 192.36 169.22 192.672 168.82 193.157C168.365 193.721 168.143 194.433 168.197 195.151V219.903H162.13V187.787H167.731V191.265L168.405 190.14C168.755 189.566 169.193 189.049 169.701 188.605C170.291 188.114 170.979 187.751 171.721 187.54C172.463 187.328 173.241 187.273 174.006 187.378V187.378C174.86 187.356 175.704 187.568 176.443 187.992C177.393 188.64 178.132 189.546 178.569 190.6C179.284 189.382 180.4 188.443 181.733 187.941C182.487 187.56 183.323 187.366 184.17 187.378H184.689C185.729 187.396 186.747 187.678 187.645 188.196C188.478 188.661 189.174 189.331 189.667 190.14C190.176 191.136 190.408 192.248 190.342 193.361V219.903H190.134ZM198.017 163.138H93.9854L81.3315 135.522C77.7013 127.851 75.575 122.737 71.4262 122.737H62.4544L44.6663 163.342H19.2548L46.0666 102.281H71.115C87.088 102.281 93.1556 107.395 100.26 122.737L118.982 162.524L128.369 140.534H208.596L198.017 163.138ZM214.353 102.281C209.737 112.509 203.981 122.737 192.779 122.737H136.148C140.608 111.69 150.824 102.281 160.678 102.281H184.533C186.707 102.02 188.776 101.21 190.539 99.9284C192.301 98.6471 193.698 96.9382 194.594 94.9676C196.565 90.4161 195.113 86.8363 189.823 86.8363H151.446L160.159 66.3802H215.805C222.702 66.3802 227.992 70.7783 220.991 86.8363L214.353 102.281Z" fill="white"/>
</svg>
