<svg width="212" height="157" viewBox="0 0 212 157" fill="none" xmlns="http://www.w3.org/2000/svg">
<path d="M136.831 117.918L109.308 51.2528C108.8 50.0217 107.938 48.9691 106.831 48.2285C105.724 47.4879 104.422 47.0925 103.09 47.0925C101.758 47.0925 100.456 47.4879 99.3489 48.2285C98.2419 48.9691 97.3796 50.0217 96.8713 51.2528L69.349 117.918C69.0067 118.736 68.8294 119.613 68.8272 120.499C68.8249 121.385 68.9978 122.263 69.336 123.082C69.6741 123.902 70.1707 124.646 70.7974 125.273C71.424 125.9 72.1684 126.396 72.9876 126.735C73.8068 127.073 74.6848 127.246 75.571 127.244C76.4573 127.241 77.3344 127.064 78.152 126.722C78.9696 126.38 79.7115 125.88 80.3352 125.25C80.9588 124.62 81.4518 123.873 81.786 123.053L87.3914 109.478H118.788L124.394 123.053C124.902 124.284 125.764 125.337 126.872 126.078C127.979 126.819 129.281 127.215 130.614 127.214C131.719 127.214 132.808 126.941 133.782 126.419C134.757 125.898 135.589 125.145 136.203 124.225C136.817 123.306 137.196 122.25 137.305 121.15C137.414 120.05 137.25 118.94 136.828 117.918H136.831ZM92.9479 96.0225L103.091 71.4511L113.235 96.0225H92.9479Z" fill="black"/>
<path d="M72.4626 90.1877C73.5078 88.744 73.9374 86.9445 73.657 85.1843C73.3766 83.4241 72.4093 81.8471 70.9672 80.7995C70.9061 80.7537 66.3802 77.3959 59.8084 70.179C71.9336 53.7634 78.8019 35.0879 81.6031 26.2991H91.4714C93.2557 26.2991 94.9669 25.5903 96.2286 24.3286C97.4903 23.067 98.1991 21.3557 98.1991 19.5715C98.1991 17.7872 97.4903 16.0759 96.2286 14.8143C94.9669 13.5526 93.2557 12.8438 91.4714 12.8438H55.9981V6.72769C55.9981 4.94339 55.2893 3.23218 54.0276 1.97049C52.7659 0.708808 51.0547 0 49.2704 0C47.4861 0 45.7749 0.708808 44.5132 1.97049C43.2516 3.23218 42.5428 4.94339 42.5428 6.72769V12.8438H7.06949C5.28519 12.8438 3.57398 13.5526 2.31229 14.8143C1.0506 16.0759 0.341797 17.7872 0.341797 19.5715C0.341797 21.3557 1.0506 23.067 2.31229 24.3286C3.57398 25.5903 5.28519 26.2991 7.06949 26.2991H67.3893C64.4781 34.5406 59.1173 47.5525 50.9401 59.4361C41.3348 46.6902 37.7661 38.4426 37.7386 38.3753C37.0354 36.7503 35.7199 35.4679 34.0774 34.8065C32.4349 34.145 30.5978 34.1577 28.9646 34.8419C27.3315 35.5261 26.0339 36.8265 25.3533 38.4612C24.6727 40.0959 24.664 41.933 25.329 43.574C25.5064 43.996 29.7785 54.0417 41.4938 69.2401C41.7752 69.604 42.0535 69.9588 42.3317 70.3135C30.332 83.8759 18.5585 92.2886 13.632 95.0041C12.0655 95.8586 10.9026 97.3003 10.399 99.0122C9.89551 100.724 10.0926 102.566 10.9471 104.132C11.8015 105.699 13.2433 106.862 14.9551 107.365C16.667 107.869 18.5088 107.672 20.0753 106.817C20.7359 106.456 34.9374 98.5943 51.1542 80.6436C58.0409 88.0073 62.7747 91.4813 63.0591 91.6831C63.7747 92.2028 64.5857 92.5764 65.4458 92.7824C66.3059 92.9884 67.1982 93.0228 68.0716 92.8836C68.945 92.7445 69.7823 92.4344 70.5358 91.9713C71.2893 91.5082 71.944 90.9011 72.4626 90.1847V90.1877Z" fill="black"/>
<path d="M199.969 91.5396H152.792C149.83 91.5428 146.99 92.7211 144.895 94.8158C142.801 96.9104 141.622 99.7505 141.619 102.713V132.508C141.622 135.471 142.801 138.311 144.895 140.405C146.99 142.5 149.83 143.678 152.792 143.682H156.517V153.613C156.517 154.085 156.651 154.548 156.904 154.946C157.158 155.345 157.519 155.663 157.947 155.863C158.375 156.063 158.85 156.137 159.319 156.076C159.787 156.016 160.228 155.823 160.59 155.521L174.788 143.682H199.969C202.931 143.678 205.771 142.5 207.866 140.405C209.96 138.311 211.139 135.471 211.142 132.508V102.713C211.139 99.7505 209.96 96.9104 207.866 94.8158C205.771 92.7211 202.931 91.5428 199.969 91.5396V91.5396ZM161.483 122.576C160.501 122.576 159.54 122.285 158.724 121.74C157.907 121.194 157.271 120.418 156.895 119.511C156.519 118.604 156.421 117.605 156.612 116.642C156.804 115.678 157.277 114.794 157.971 114.099C158.666 113.405 159.551 112.932 160.514 112.74C161.477 112.548 162.476 112.647 163.383 113.023C164.291 113.399 165.066 114.035 165.612 114.852C166.157 115.668 166.449 116.628 166.449 117.611C166.449 118.928 165.925 120.191 164.994 121.122C164.063 122.053 162.8 122.576 161.483 122.576ZM176.38 122.576C175.398 122.576 174.438 122.285 173.622 121.74C172.805 121.194 172.168 120.418 171.793 119.511C171.417 118.604 171.318 117.605 171.51 116.642C171.702 115.678 172.175 114.794 172.869 114.099C173.564 113.405 174.448 112.932 175.412 112.74C176.375 112.548 177.373 112.647 178.281 113.023C179.188 113.399 179.964 114.035 180.509 114.852C181.055 115.668 181.346 116.628 181.346 117.611C181.346 118.928 180.823 120.191 179.892 121.122C178.961 122.053 177.698 122.576 176.38 122.576V122.576ZM191.278 122.576C190.296 122.576 189.336 122.285 188.519 121.74C187.703 121.194 187.066 120.418 186.69 119.511C186.314 118.604 186.216 117.605 186.408 116.642C186.599 115.678 187.072 114.794 187.767 114.099C188.461 113.405 189.346 112.932 190.309 112.74C191.273 112.548 192.271 112.647 193.179 113.023C194.086 113.399 194.862 114.035 195.407 114.852C195.953 115.668 196.244 116.628 196.244 117.611C196.244 118.928 195.721 120.191 194.79 121.122C193.858 122.053 192.595 122.576 191.278 122.576Z" fill="black"/>
</svg>
