<svg width="226" height="122" viewBox="0 0 226 122" fill="none" xmlns="http://www.w3.org/2000/svg">
<path d="M94.0003 48.1426C94.0003 44.5811 92.5855 41.1655 90.0672 38.6472C87.5488 36.1288 84.1332 34.714 80.5717 34.714H77.2145V31.4513C77.2145 29.6447 75.8255 28.0941 74.019 28.0039C73.565 27.982 73.1114 28.0525 72.6855 28.2112C72.2597 28.3698 71.8705 28.6132 71.5415 28.9267C71.2125 29.2402 70.9505 29.6173 70.7716 30.035C70.5926 30.4527 70.5003 30.9024 70.5002 31.3568V34.714H23.5001V31.4513C23.5001 29.6447 22.1111 28.0941 20.3045 28.0039C19.8506 27.982 19.3969 28.0525 18.9711 28.2112C18.5452 28.3698 18.156 28.6132 17.827 28.9267C17.498 29.2402 17.2361 29.6173 17.0571 30.035C16.8781 30.4527 16.7858 30.9024 16.7858 31.3568V34.714H13.4286C9.86713 34.714 6.4515 36.1288 3.93315 38.6472C1.4148 41.1655 0 44.5811 0 48.1426V50.6605C0 50.8831 0.088425 51.0966 0.245822 51.254C0.403219 51.4114 0.616695 51.4998 0.839289 51.4998H93.161C93.3836 51.4998 93.5971 51.4114 93.7545 51.254C93.9119 51.0966 94.0003 50.8831 94.0003 50.6605V48.1426Z" fill="black"/>
<path d="M0 108.571C0 112.133 1.4148 115.548 3.93315 118.067C6.4515 120.585 9.86713 122 13.4286 122H80.5717C84.1332 122 87.5488 120.585 90.0672 118.067C92.5855 115.548 94.0003 112.133 94.0003 108.571V58.8435C94.0003 58.6765 93.934 58.5164 93.8159 58.3984C93.6979 58.2803 93.5378 58.214 93.3708 58.214H0.629466C0.462522 58.214 0.302415 58.2803 0.184367 58.3984C0.0663189 58.5164 0 58.6765 0 58.8435V108.571ZM72.1788 64.9283C73.1748 64.9283 74.1484 65.2236 74.9765 65.777C75.8046 66.3303 76.4501 67.1168 76.8312 68.0369C77.2124 68.9571 77.3121 69.9696 77.1178 70.9465C76.9235 71.9233 76.4439 72.8206 75.7396 73.5248C75.0354 74.2291 74.1381 74.7087 73.1612 74.903C72.1844 75.0973 71.1719 74.9976 70.2517 74.6164C69.3316 74.2353 68.5451 73.5899 67.9918 72.7617C67.4384 71.9336 67.1431 70.96 67.1431 69.964C67.1431 68.6285 67.6736 67.3476 68.618 66.4032C69.5624 65.4588 70.8433 64.9283 72.1788 64.9283ZM72.1788 81.7141C73.1748 81.7141 74.1484 82.0094 74.9765 82.5627C75.8046 83.1161 76.4501 83.9026 76.8312 84.8227C77.2124 85.7429 77.3121 86.7554 77.1178 87.7322C76.9235 88.7091 76.4439 89.6063 75.7396 90.3106C75.0354 91.0149 74.1381 91.4945 73.1612 91.6888C72.1844 91.8831 71.1719 91.7833 70.2517 91.4022C69.3316 91.0211 68.5451 90.3756 67.9918 89.5475C67.4384 88.7194 67.1431 87.7458 67.1431 86.7498C67.1431 85.4142 67.6736 84.1334 68.618 83.189C69.5624 82.2446 70.8433 81.7141 72.1788 81.7141ZM55.393 64.9283C56.389 64.9283 57.3626 65.2236 58.1907 65.777C59.0189 66.3303 59.6643 67.1168 60.0454 68.0369C60.4266 68.9571 60.5263 69.9696 60.332 70.9465C60.1377 71.9233 59.6581 72.8206 58.9538 73.5248C58.2496 74.2291 57.3523 74.7087 56.3755 74.903C55.3986 75.0973 54.3861 74.9976 53.466 74.6164C52.5458 74.2353 51.7593 73.5899 51.206 72.7617C50.6527 71.9336 50.3573 70.96 50.3573 69.964C50.3573 68.6285 50.8879 67.3476 51.8322 66.4032C52.7766 65.4588 54.0575 64.9283 55.393 64.9283ZM55.393 81.7141C56.389 81.7141 57.3626 82.0094 58.1907 82.5627C59.0189 83.1161 59.6643 83.9026 60.0454 84.8227C60.4266 85.7429 60.5263 86.7554 60.332 87.7322C60.1377 88.7091 59.6581 89.6063 58.9538 90.3106C58.2496 91.0149 57.3523 91.4945 56.3755 91.6888C55.3986 91.8831 54.3861 91.7833 53.466 91.4022C52.5458 91.0211 51.7593 90.3756 51.206 89.5475C50.6527 88.7194 50.3573 87.7458 50.3573 86.7498C50.3573 85.4142 50.8879 84.1334 51.8322 83.189C52.7766 82.2446 54.0575 81.7141 55.393 81.7141ZM55.393 98.4998C56.389 98.4998 57.3626 98.7952 58.1907 99.3485C59.0189 99.9018 59.6643 100.688 60.0454 101.608C60.4266 102.529 60.5263 103.541 60.332 104.518C60.1377 105.495 59.6581 106.392 58.9538 107.096C58.2496 107.801 57.3523 108.28 56.3755 108.475C55.3986 108.669 54.3861 108.569 53.466 108.188C52.5458 107.807 51.7593 107.161 51.206 106.333C50.6527 105.505 50.3573 104.532 50.3573 103.536C50.3573 102.2 50.8879 100.919 51.8322 99.9748C52.7766 99.0304 54.0575 98.4998 55.393 98.4998ZM38.6073 81.7141C39.6032 81.7141 40.5769 82.0094 41.405 82.5627C42.2331 83.1161 42.8785 83.9026 43.2597 84.8227C43.6408 85.7429 43.7405 86.7554 43.5462 87.7322C43.3519 88.7091 42.8723 89.6063 42.1681 90.3106C41.4638 91.0149 40.5665 91.4945 39.5897 91.6888C38.6129 91.8831 37.6003 91.7833 36.6802 91.4022C35.76 91.0211 34.9735 90.3756 34.4202 89.5475C33.8669 88.7194 33.5715 87.7458 33.5715 86.7498C33.5715 85.4142 34.1021 84.1334 35.0465 83.189C35.9909 82.2446 37.2717 81.7141 38.6073 81.7141ZM38.6073 98.4998C39.6032 98.4998 40.5769 98.7952 41.405 99.3485C42.2331 99.9018 42.8785 100.688 43.2597 101.608C43.6408 102.529 43.7405 103.541 43.5462 104.518C43.3519 105.495 42.8723 106.392 42.1681 107.096C41.4638 107.801 40.5665 108.28 39.5897 108.475C38.6129 108.669 37.6003 108.569 36.6802 108.188C35.76 107.807 34.9735 107.161 34.4202 106.333C33.8669 105.505 33.5715 104.532 33.5715 103.536C33.5715 102.2 34.1021 100.919 35.0465 99.9748C35.9909 99.0304 37.2717 98.4998 38.6073 98.4998ZM21.8215 81.7141C22.8175 81.7141 23.7911 82.0094 24.6192 82.5627C25.4473 83.1161 26.0928 83.9026 26.4739 84.8227C26.8551 85.7429 26.9548 86.7554 26.7605 87.7322C26.5662 88.7091 26.0866 89.6063 25.3823 90.3106C24.678 91.0149 23.7808 91.4945 22.8039 91.6888C21.8271 91.8831 20.8146 91.7833 19.8944 91.4022C18.9743 91.0211 18.1878 90.3756 17.6344 89.5475C17.0811 88.7194 16.7858 87.7458 16.7858 86.7498C16.7858 85.4142 17.3163 84.1334 18.2607 83.189C19.2051 82.2446 20.4859 81.7141 21.8215 81.7141ZM21.8215 98.4998C22.8175 98.4998 23.7911 98.7952 24.6192 99.3485C25.4473 99.9018 26.0928 100.688 26.4739 101.608C26.8551 102.529 26.9548 103.541 26.7605 104.518C26.5662 105.495 26.0866 106.392 25.3823 107.096C24.678 107.801 23.7808 108.28 22.8039 108.475C21.8271 108.669 20.8146 108.569 19.8944 108.188C18.9743 107.807 18.1878 107.161 17.6344 106.333C17.0811 105.505 16.7858 104.532 16.7858 103.536C16.7858 102.2 17.3163 100.919 18.2607 99.9748C19.2051 99.0304 20.4859 98.4998 21.8215 98.4998Z" fill="black"/>
<path d="M226 26.1425C226 21.5201 224.164 17.0871 220.895 13.8186C217.627 10.5501 213.194 8.71389 208.571 8.71389H204.214V4.47929C204.214 2.1346 202.412 0.122147 200.067 0.00504878C199.478 -0.0233358 198.889 0.0681841 198.336 0.274064C197.784 0.479943 197.278 0.795896 196.851 1.20278C196.424 1.60966 196.084 2.09899 195.852 2.64113C195.62 3.18328 195.5 3.76694 195.5 4.35675V8.71389H134.5V4.47929C134.5 2.1346 132.697 0.122147 130.353 0.00504878C129.763 -0.0233358 129.175 0.0681841 128.622 0.274064C128.069 0.479943 127.564 0.795896 127.137 1.20278C126.71 1.60966 126.37 2.09899 126.138 2.64113C125.906 3.18328 125.786 3.76694 125.786 4.35675V8.71389H121.429C116.806 8.71389 112.373 10.5501 109.105 13.8186C105.836 17.0871 104 21.5201 104 26.1425V29.4103C104 29.6992 104.115 29.9763 104.319 30.1806C104.523 30.3848 104.8 30.4996 105.089 30.4996H224.911C225.2 30.4996 225.477 30.3848 225.681 30.1806C225.885 29.9763 226 29.6992 226 29.4103V26.1425Z" fill="black"/>
<path d="M104 104.571C104 109.193 105.836 113.626 109.105 116.895C112.373 120.163 116.806 121.999 121.429 121.999H208.571C213.194 121.999 217.627 120.163 220.895 116.895C224.164 113.626 226 109.193 226 104.571V40.0306C226 39.8139 225.914 39.6061 225.761 39.4529C225.608 39.2997 225.4 39.2136 225.183 39.2136H104.817C104.6 39.2136 104.392 39.2997 104.239 39.4529C104.086 39.6061 104 39.8139 104 40.0306V104.571ZM197.679 47.9279C198.971 47.9279 200.235 48.3112 201.31 49.0294C202.384 49.7475 203.222 50.7683 203.717 51.9625C204.211 53.1568 204.341 54.4709 204.089 55.7387C203.837 57.0065 203.214 58.171 202.3 59.0851C201.386 59.9991 200.221 60.6216 198.954 60.8738C197.686 61.1259 196.372 60.9965 195.177 60.5018C193.983 60.0072 192.962 59.1695 192.244 58.0947C191.526 57.0199 191.143 55.7563 191.143 54.4636C191.143 52.7302 191.831 51.0679 193.057 49.8422C194.283 48.6165 195.945 47.9279 197.679 47.9279ZM197.679 69.7136C198.971 69.7136 200.235 70.0969 201.31 70.8151C202.384 71.5332 203.222 72.554 203.717 73.7482C204.211 74.9425 204.341 76.2566 204.089 77.5244C203.837 78.7922 203.214 79.9567 202.3 80.8708C201.386 81.7848 200.221 82.4073 198.954 82.6595C197.686 82.9117 196.372 82.7822 195.177 82.2875C193.983 81.7929 192.962 80.9552 192.244 79.8804C191.526 78.8056 191.143 77.542 191.143 76.2493C191.143 74.516 191.831 72.8536 193.057 71.6279C194.283 70.4022 195.945 69.7136 197.679 69.7136ZM175.893 47.9279C177.186 47.9279 178.449 48.3112 179.524 49.0294C180.599 49.7475 181.436 50.7683 181.931 51.9625C182.426 53.1568 182.555 54.4709 182.303 55.7387C182.051 57.0065 181.428 58.171 180.514 59.0851C179.6 59.9991 178.436 60.6216 177.168 60.8738C175.9 61.1259 174.586 60.9965 173.392 60.5018C172.198 60.0072 171.177 59.1695 170.459 58.0947C169.74 57.0199 169.357 55.7563 169.357 54.4636C169.357 52.7302 170.046 51.0679 171.271 49.8422C172.497 48.6165 174.159 47.9279 175.893 47.9279ZM175.893 69.7136C177.186 69.7136 178.449 70.0969 179.524 70.8151C180.599 71.5332 181.436 72.554 181.931 73.7482C182.426 74.9425 182.555 76.2566 182.303 77.5244C182.051 78.7922 181.428 79.9567 180.514 80.8708C179.6 81.7848 178.436 82.4073 177.168 82.6595C175.9 82.9117 174.586 82.7822 173.392 82.2875C172.198 81.7929 171.177 80.9552 170.459 79.8804C169.74 78.8056 169.357 77.542 169.357 76.2493C169.357 74.516 170.046 72.8536 171.271 71.6279C172.497 70.4022 174.159 69.7136 175.893 69.7136ZM175.893 91.4993C177.186 91.4993 178.449 91.8827 179.524 92.6008C180.599 93.319 181.436 94.3397 181.931 95.5339C182.426 96.7282 182.555 98.0423 182.303 99.3101C182.051 100.578 181.428 101.742 180.514 102.656C179.6 103.571 178.436 104.193 177.168 104.445C175.9 104.697 174.586 104.568 173.392 104.073C172.198 103.579 171.177 102.741 170.459 101.666C169.74 100.591 169.357 99.3277 169.357 98.0351C169.357 96.3017 170.046 94.6393 171.271 93.4136C172.497 92.1879 174.159 91.4993 175.893 91.4993ZM154.107 69.7136C155.4 69.7136 156.663 70.0969 157.738 70.8151C158.813 71.5332 159.651 72.554 160.145 73.7482C160.64 74.9425 160.769 76.2566 160.517 77.5244C160.265 78.7922 159.643 79.9567 158.729 80.8708C157.815 81.7848 156.65 82.4073 155.382 82.6595C154.114 82.9117 152.8 82.7822 151.606 82.2875C150.412 81.7929 149.391 80.9552 148.673 79.8804C147.955 78.8056 147.571 77.542 147.571 76.2493C147.571 74.516 148.26 72.8536 149.486 71.6279C150.711 70.4022 152.374 69.7136 154.107 69.7136ZM154.107 91.4993C155.4 91.4993 156.663 91.8827 157.738 92.6008C158.813 93.319 159.651 94.3397 160.145 95.5339C160.64 96.7282 160.769 98.0423 160.517 99.3101C160.265 100.578 159.643 101.742 158.729 102.656C157.815 103.571 156.65 104.193 155.382 104.445C154.114 104.697 152.8 104.568 151.606 104.073C150.412 103.579 149.391 102.741 148.673 101.666C147.955 100.591 147.571 99.3277 147.571 98.0351C147.571 96.3017 148.26 94.6393 149.486 93.4136C150.711 92.1879 152.374 91.4993 154.107 91.4993ZM132.321 69.7136C133.614 69.7136 134.878 70.0969 135.952 70.8151C137.027 71.5332 137.865 72.554 138.36 73.7482C138.854 74.9425 138.984 76.2566 138.732 77.5244C138.479 78.7922 137.857 79.9567 136.943 80.8708C136.029 81.7848 134.864 82.4073 133.596 82.6595C132.329 82.9117 131.015 82.7822 129.82 82.2875C128.626 81.7929 127.605 80.9552 126.887 79.8804C126.169 78.8056 125.786 77.542 125.786 76.2493C125.786 74.516 126.474 72.8536 127.7 71.6279C128.926 70.4022 130.588 69.7136 132.321 69.7136ZM132.321 91.4993C133.614 91.4993 134.878 91.8827 135.952 92.6008C137.027 93.319 137.865 94.3397 138.36 95.5339C138.854 96.7282 138.984 98.0423 138.732 99.3101C138.479 100.578 137.857 101.742 136.943 102.656C136.029 103.571 134.864 104.193 133.596 104.445C132.329 104.697 131.015 104.568 129.82 104.073C128.626 103.579 127.605 102.741 126.887 101.666C126.169 100.591 125.786 99.3277 125.786 98.0351C125.786 96.3017 126.474 94.6393 127.7 93.4136C128.926 92.1879 130.588 91.4993 132.321 91.4993Z" fill="black"/>
</svg>
