<svg width="209" height="190" viewBox="0 0 209 190" fill="none" xmlns="http://www.w3.org/2000/svg">
<path d="M53.1205 77.5801C50.14 77.2858 47.1414 77.9198 44.5353 79.3955C41.9291 80.8712 39.8428 83.1164 38.5619 85.8236C37.281 88.5308 36.8682 91.5678 37.3801 94.5187C37.8919 97.4696 39.3033 100.19 41.4211 102.308C43.5388 104.426 46.2594 105.837 49.2103 106.349C52.1612 106.861 55.1981 106.448 57.9054 105.167C60.6126 103.886 62.8578 101.8 64.3334 99.1937C65.8091 96.5875 66.4432 93.5889 66.1488 90.6085C65.8133 87.2674 64.3328 84.145 61.9584 81.7706C59.584 79.3962 56.4616 77.9157 53.1205 77.5801V77.5801ZM88.0973 92.0362C88.0881 93.6151 87.972 95.1917 87.7501 96.755L98.0116 104.804C98.4584 105.174 98.7595 105.691 98.8613 106.262C98.9631 106.833 98.8591 107.422 98.5677 107.924L88.86 124.721C88.5652 125.218 88.1043 125.595 87.5587 125.785C87.0131 125.976 86.4177 125.968 85.8775 125.762L75.6863 121.659C75.1243 121.435 74.5156 121.354 73.9147 121.423C73.3138 121.493 72.7394 121.71 72.2431 122.056C70.6878 123.127 69.0534 124.078 67.3541 124.902C66.8198 125.162 66.3577 125.549 66.0086 126.03C65.6595 126.51 65.434 127.069 65.3522 127.658L63.8246 138.527C63.7243 139.102 63.4277 139.623 62.9856 140.003C62.5434 140.382 61.9832 140.596 61.4005 140.609H41.9851C41.4121 140.599 40.8595 140.394 40.4185 140.028C39.9774 139.662 39.6742 139.157 39.5587 138.596L38.0334 127.742C37.9478 127.147 37.7165 126.582 37.3601 126.098C37.0037 125.615 36.5333 125.226 35.9907 124.968C34.2934 124.149 32.6645 123.195 31.1198 122.115C30.6252 121.771 30.0527 121.555 29.454 121.487C28.8553 121.42 28.2492 121.502 27.6902 121.727L17.5013 125.828C16.9613 126.034 16.3661 126.042 15.8205 125.852C15.275 125.662 14.814 125.285 14.5188 124.789L4.8111 107.993C4.51924 107.491 4.41494 106.902 4.51678 106.33C4.61861 105.759 4.91997 105.242 5.36719 104.872L14.0399 98.0624C14.515 97.6852 14.8885 97.1953 15.1263 96.6372C15.3641 96.0791 15.4588 95.4705 15.4018 94.8665C15.32 93.9201 15.2701 92.9758 15.2701 92.0294C15.2701 91.0829 15.3178 90.1523 15.4018 89.2262C15.4526 88.6259 15.3532 88.0224 15.1127 87.4701C14.8722 86.9178 14.4981 86.4339 14.024 86.0622L5.35584 79.2529C4.91588 78.8809 4.62087 78.3659 4.52251 77.7982C4.42416 77.2305 4.52873 76.6463 4.81791 76.1479L14.5256 59.3518C14.8204 58.8547 15.2813 58.4776 15.8269 58.287C16.3725 58.0964 16.9679 58.1045 17.5081 58.3099L27.6993 62.4136C28.2613 62.6374 28.87 62.7183 29.4709 62.6489C30.0718 62.5796 30.6462 62.3623 31.1425 62.0164C32.6978 60.9454 34.3322 59.9939 36.0315 59.1702C36.5658 58.9105 37.0279 58.5233 37.377 58.0427C37.7261 57.5622 37.9516 57.003 38.0334 56.4147L39.561 45.5449C39.6613 44.9708 39.9579 44.4494 40.4 44.0698C40.8422 43.6901 41.4024 43.4758 41.9851 43.4635L61.4005 43.4635C61.9735 43.4734 62.5261 43.6782 62.9671 44.0442C63.4082 44.4101 63.7114 44.9154 63.8269 45.4768L65.3522 56.3307C65.4378 56.9255 65.6691 57.49 66.0255 57.9739C66.3819 58.4578 66.8523 58.8461 67.3949 59.1044C69.0922 59.9236 70.7211 60.8777 72.2658 61.9574C72.7604 62.3016 73.3329 62.5172 73.9316 62.585C74.5303 62.6527 75.1364 62.5704 75.6954 62.3456L85.8843 58.2441C86.4243 58.0385 87.0195 58.03 87.5651 58.2202C88.1106 58.4104 88.5716 58.787 88.8668 59.2837L98.5745 76.0798C98.8664 76.5816 98.9707 77.1707 98.8688 77.7423C98.767 78.3138 98.4656 78.8306 98.0184 79.2007L89.3457 86.01C88.8685 86.3859 88.4929 86.8752 88.253 87.4334C88.0132 87.9916 87.9168 88.6008 87.9725 89.2058C88.0474 90.1455 88.0973 91.0897 88.0973 92.0362V92.0362Z" stroke="black" stroke-width="7.37068" stroke-linecap="round" stroke-linejoin="round"/>
<path d="M137.315 66.2626C135.323 66.0658 133.319 66.4896 131.577 67.4757C129.836 68.4619 128.442 69.9623 127.586 71.7714C126.73 73.5806 126.454 75.6101 126.796 77.5821C127.138 79.5541 128.081 81.3722 129.496 82.7874C130.911 84.2026 132.73 85.1458 134.702 85.4879C136.674 85.8299 138.703 85.5541 140.512 84.6981C142.321 83.8421 143.822 82.4479 144.808 80.7063C145.794 78.9646 146.218 76.9608 146.021 74.969C145.797 72.7362 144.808 70.6497 143.221 69.0629C141.634 67.4762 139.547 66.4868 137.315 66.2626V66.2626ZM160.689 75.9231C160.682 76.9783 160.605 78.0318 160.457 79.0765L167.314 84.4551C167.613 84.7027 167.814 85.048 167.882 85.4299C167.95 85.8117 167.88 86.2053 167.686 86.5407L161.198 97.7651C161.001 98.0973 160.693 98.3493 160.329 98.4767C159.964 98.604 159.566 98.5986 159.205 98.4613L152.395 95.7189C152.019 95.5694 151.612 95.5154 151.211 95.5617C150.809 95.608 150.425 95.7533 150.094 95.9844C149.054 96.7001 147.962 97.336 146.827 97.8864C146.47 98.06 146.161 98.3187 145.927 98.6399C145.694 98.961 145.543 99.3347 145.489 99.7279L144.468 106.992C144.401 107.375 144.203 107.724 143.907 107.978C143.612 108.231 143.237 108.375 142.848 108.383H129.873C129.49 108.376 129.121 108.239 128.826 107.995C128.532 107.75 128.329 107.412 128.252 107.037L127.232 99.784C127.175 99.3865 127.021 99.0093 126.782 98.6859C126.544 98.3625 126.23 98.103 125.867 97.9304C124.733 97.3829 123.645 96.7454 122.612 96.0238C122.282 95.7938 121.899 95.6497 121.499 95.6044C121.099 95.5592 120.694 95.6142 120.32 95.7644L113.511 98.5053C113.151 98.6427 112.753 98.6484 112.388 98.5213C112.024 98.3942 111.716 98.1425 111.518 97.8106L105.031 86.5862C104.836 86.2509 104.766 85.8572 104.834 85.4753C104.902 85.0934 105.104 84.748 105.403 84.5006L111.198 79.9502C111.516 79.6982 111.765 79.3708 111.924 78.9979C112.083 78.6249 112.146 78.2182 112.108 77.8146C112.054 77.182 112.02 76.5511 112.02 75.9185C112.02 75.286 112.052 74.6641 112.108 74.0453C112.142 73.6441 112.076 73.2408 111.915 72.8717C111.754 72.5026 111.504 72.1793 111.188 71.9309L105.395 67.3804C105.101 67.1318 104.904 66.7877 104.838 66.4083C104.772 66.0289 104.842 65.6385 105.035 65.3055L111.523 54.0811C111.72 53.7489 112.028 53.4969 112.392 53.3695C112.757 53.2422 113.155 53.2476 113.516 53.3849L120.326 56.1273C120.702 56.2768 121.109 56.3308 121.51 56.2845C121.912 56.2382 122.296 56.0929 122.627 55.8618C123.667 55.1461 124.759 54.5102 125.895 53.9597C126.252 53.7862 126.56 53.5275 126.794 53.2063C127.027 52.8852 127.178 52.5115 127.232 52.1183L128.253 44.8544C128.32 44.4707 128.518 44.1223 128.814 43.8686C129.109 43.6149 129.484 43.4717 129.873 43.4634L142.848 43.4634C143.231 43.4701 143.6 43.6069 143.895 43.8515C144.19 44.096 144.392 44.4337 144.469 44.8088L145.489 52.0622C145.546 52.4597 145.701 52.8369 145.939 53.1603C146.177 53.4837 146.491 53.7432 146.854 53.9158C147.988 54.4633 149.077 55.1008 150.109 55.8224C150.439 56.0523 150.822 56.1965 151.222 56.2417C151.622 56.287 152.027 56.232 152.401 56.0818L159.21 53.3409C159.571 53.2035 159.968 53.1978 160.333 53.3249C160.698 53.452 161.006 53.7037 161.203 54.0356L167.69 65.2599C167.885 65.5953 167.955 65.989 167.887 66.3709C167.819 66.7528 167.617 67.0982 167.319 67.3456L161.523 71.896C161.204 72.1472 160.953 72.4742 160.793 72.8472C160.632 73.2202 160.568 73.6274 160.605 74.0316C160.655 74.6596 160.689 75.2906 160.689 75.9231V75.9231Z" stroke="black" stroke-width="7.37068" stroke-linecap="round" stroke-linejoin="round"/>
<path d="M90.5163 22.6158C88.8475 23.063 87.3487 23.995 86.2095 25.294C85.0704 26.5929 84.342 28.2005 84.1165 29.9134C83.891 31.6264 84.1785 33.3677 84.9426 34.9172C85.7068 36.4668 86.9132 37.7549 88.4095 38.6188C89.9057 39.4826 91.6245 39.8834 93.3485 39.7704C95.0725 39.6574 96.7243 39.0357 98.095 37.9839C99.4657 36.9322 100.494 35.4976 101.049 33.8616C101.604 32.2255 101.662 30.4616 101.215 28.7927C100.609 26.5587 99.1441 24.6552 97.1395 23.4979C95.135 22.3405 92.7539 22.0234 90.5163 22.6158V22.6158ZM110.994 26.1723C111.201 26.9619 111.354 27.7647 111.453 28.575L117.666 31.2195C117.939 31.3443 118.159 31.5621 118.286 31.8341C118.413 32.106 118.44 32.4144 118.361 32.7041L115.75 42.393C115.669 42.6808 115.489 42.9308 115.241 43.099C114.994 43.2672 114.695 43.3429 114.398 43.3126L107.71 42.5047C106.712 43.8098 105.551 44.982 104.256 45.9928L105.071 52.6454C105.097 52.946 105.018 53.2466 104.848 53.4956C104.677 53.7446 104.425 53.9266 104.135 54.0106L94.4192 56.614C94.1315 56.6851 93.8282 56.6566 93.5588 56.5332C93.2894 56.4097 93.0698 56.1985 92.9359 55.9342L90.3153 49.7655C88.6862 49.5459 87.0936 49.11 85.5797 48.4694L80.1914 52.5132C79.949 52.6883 79.6526 52.7723 79.3544 52.7505C79.0562 52.7286 78.7753 52.6024 78.5609 52.3939L71.4558 45.3095C71.2425 45.0982 71.1112 44.8179 71.0855 44.5187C71.0598 44.2195 71.1413 43.9209 71.3155 43.6763L75.3737 38.2796C75.0518 37.5166 74.78 36.7333 74.56 35.9349C74.3531 35.1453 74.2 34.3426 74.1016 33.5323L67.8888 30.8877C67.6157 30.763 67.3958 30.5452 67.2685 30.2732C67.1411 30.0013 67.1146 29.6929 67.1937 29.4032L69.8045 19.7143C69.8856 19.4264 70.0657 19.1764 70.313 19.0082C70.5603 18.84 70.859 18.7644 71.1565 18.7947L77.8448 19.6026C78.8428 18.2975 80.0034 17.1253 81.2986 16.1145L80.4837 9.46192C80.4573 9.16123 80.5361 8.8607 80.7067 8.61169C80.8773 8.36268 81.1291 8.18064 81.419 8.09668L91.1352 5.49325C91.4229 5.42213 91.7262 5.45064 91.9956 5.57412C92.265 5.6976 92.4846 5.90875 92.6185 6.17311L95.2391 12.3418C96.87 12.5604 98.4644 12.9958 99.98 13.6365L105.363 9.59406C105.605 9.41899 105.902 9.33499 106.2 9.35681C106.498 9.37863 106.779 9.50488 106.993 9.71337L114.099 16.7988C114.312 17.0102 114.443 17.2905 114.469 17.5896C114.495 17.8888 114.413 18.1874 114.239 18.432L110.181 23.8287C110.503 24.5914 110.774 25.3743 110.994 26.1723V26.1723Z" fill="black"/>
<path d="M176.513 114.515C174.844 114.962 173.346 115.894 172.206 117.193C171.067 118.492 170.339 120.099 170.113 121.812C169.888 123.525 170.175 125.266 170.939 126.816C171.704 128.365 172.91 129.654 174.406 130.517C175.903 131.381 177.621 131.782 179.345 131.669C181.069 131.556 182.721 130.934 184.092 129.883C185.463 128.831 186.491 127.396 187.046 125.76C187.601 124.124 187.659 122.36 187.212 120.691C186.606 118.457 185.141 116.554 183.136 115.397C181.132 114.239 178.751 113.922 176.513 114.515V114.515ZM196.991 118.071C197.198 118.861 197.351 119.663 197.45 120.474L203.662 123.118C203.936 123.243 204.155 123.461 204.283 123.733C204.41 124.005 204.437 124.313 204.357 124.603L201.747 134.292C201.666 134.58 201.486 134.83 201.238 134.998C200.991 135.166 200.692 135.242 200.395 135.211L193.706 134.403C192.708 135.708 191.548 136.881 190.253 137.891L191.068 144.544C191.094 144.845 191.015 145.145 190.844 145.394C190.674 145.643 190.422 145.825 190.132 145.909L180.416 148.513C180.128 148.584 179.825 148.555 179.556 148.432C179.286 148.308 179.067 148.097 178.933 147.833L176.312 141.664C174.683 141.445 173.09 141.009 171.576 140.368L166.188 144.412C165.946 144.587 165.649 144.671 165.351 144.649C165.053 144.627 164.772 144.501 164.558 144.293L157.453 137.208C157.239 136.997 157.108 136.717 157.082 136.417C157.057 136.118 157.138 135.82 157.312 135.575L161.37 130.178C161.049 129.415 160.777 128.632 160.557 127.834C160.35 127.044 160.197 126.241 160.098 125.431L153.886 122.786C153.613 122.662 153.393 122.444 153.265 122.172C153.138 121.9 153.111 121.592 153.191 121.302L155.801 111.613C155.882 111.325 156.063 111.075 156.31 110.907C156.557 110.739 156.856 110.663 157.153 110.693L163.842 111.501C164.84 110.196 166 109.024 167.295 108.013L166.481 101.361C166.454 101.06 166.533 100.759 166.704 100.51C166.874 100.261 167.126 100.079 167.416 99.9954L177.132 97.3919C177.42 97.3208 177.723 97.3493 177.992 97.4728C178.262 97.5963 178.481 97.8074 178.615 98.0718L181.236 104.24C182.867 104.459 184.461 104.895 185.977 105.535L191.36 101.493C191.602 101.318 191.899 101.234 192.197 101.255C192.495 101.277 192.776 101.404 192.99 101.612L200.096 108.698C200.309 108.909 200.44 109.189 200.466 109.488C200.492 109.788 200.41 110.086 200.236 110.331L196.178 115.727C196.5 116.49 196.771 117.273 196.991 118.071V118.071Z" fill="black"/>
<path d="M118.894 137.557C116.677 138.133 114.68 139.353 113.156 141.064C111.632 142.775 110.65 144.899 110.333 147.168C110.017 149.437 110.38 151.749 111.377 153.811C112.375 155.874 113.961 157.594 115.937 158.755C117.912 159.916 120.187 160.465 122.474 160.333C124.761 160.2 126.958 159.393 128.786 158.012C130.614 156.632 131.992 154.74 132.745 152.576C133.499 150.413 133.593 148.074 133.017 145.857C132.237 142.888 130.314 140.349 127.667 138.794C125.021 137.239 121.867 136.794 118.894 137.557V137.557ZM146.012 142.482C146.278 143.531 146.473 144.597 146.595 145.673L154.806 149.243C155.167 149.411 155.456 149.702 155.622 150.064C155.788 150.426 155.82 150.835 155.712 151.219L152.152 164.039C152.041 164.42 151.8 164.75 151.47 164.97C151.14 165.191 150.744 165.288 150.349 165.245L141.489 164.105C140.152 165.826 138.601 167.368 136.873 168.695L137.886 177.525C137.918 177.924 137.81 178.321 137.582 178.65C137.353 178.978 137.017 179.217 136.632 179.326L123.722 182.678C123.339 182.77 122.937 182.729 122.581 182.562C122.225 182.396 121.936 182.114 121.762 181.762L118.35 173.555C116.192 173.247 114.084 172.653 112.084 171.788L104.897 177.095C104.574 177.325 104.18 177.433 103.785 177.401C103.39 177.369 103.019 177.199 102.737 176.92L93.3876 167.454C93.1069 167.171 92.9357 166.798 92.9047 166.401C92.8737 166.004 92.9848 165.609 93.2183 165.287L98.6546 158.172C98.2356 157.157 97.8832 156.116 97.5996 155.055C97.3334 154.006 97.1386 152.94 97.0164 151.864L88.8053 148.294C88.4444 148.126 88.155 147.835 87.989 147.473C87.8229 147.111 87.7909 146.702 87.8988 146.318L91.4597 133.497C91.5703 133.117 91.8116 132.787 92.1412 132.566C92.4709 132.346 92.8677 132.249 93.2619 132.292L102.122 133.432C103.459 131.711 105.01 130.169 106.738 128.842L105.725 120.012C105.693 119.613 105.801 119.215 106.03 118.887C106.258 118.558 106.594 118.32 106.979 118.211L119.89 114.859C120.272 114.767 120.674 114.808 121.03 114.975C121.386 115.141 121.675 115.423 121.85 115.775L125.261 123.982C127.422 124.288 129.531 124.882 131.535 125.747L138.714 120.442C139.037 120.212 139.431 120.104 139.826 120.136C140.221 120.168 140.593 120.338 140.875 120.617L150.224 130.085C150.505 130.367 150.676 130.74 150.707 131.137C150.738 131.534 150.627 131.929 150.393 132.252L144.957 139.366C145.376 140.381 145.728 141.422 146.012 142.482V142.482Z" fill="black"/>
</svg>
