<svg width="148" height="148" viewBox="0 0 148 148" fill="none" xmlns="http://www.w3.org/2000/svg">
<path d="M143.067 148H9.86667C7.24986 148 4.74024 146.96 2.88988 145.11C1.03952 143.26 0 140.75 0 138.133V4.93333C0 3.62493 0.51976 2.37012 1.44494 1.44494C2.37012 0.51976 3.62493 0 4.93333 0C6.24173 0 7.49655 0.51976 8.42173 1.44494C9.34691 2.37012 9.86667 3.62493 9.86667 4.93333V138.133H143.067C144.375 138.133 145.63 138.653 146.555 139.578C147.48 140.503 148 141.758 148 143.067C148 144.375 147.48 145.63 146.555 146.555C145.63 147.48 144.375 148 143.067 148Z" fill="black"/>
<path d="M43.1667 128.267H30.8334C27.8895 128.267 25.0662 127.097 22.9845 125.016C20.9029 122.934 19.7334 120.111 19.7334 117.167V70.3001C19.7334 67.3562 20.9029 64.5328 22.9845 62.4512C25.0662 60.3695 27.8895 59.2001 30.8334 59.2001H43.1667C46.1106 59.2001 48.934 60.3695 51.0156 62.4512C53.0973 64.5328 54.2667 67.3562 54.2667 70.3001V117.167C54.2667 120.111 53.0973 122.934 51.0156 125.016C48.934 127.097 46.1106 128.267 43.1667 128.267Z" fill="black"/>
<path d="M87.5664 128.266H75.2331C72.2892 128.266 69.4658 127.097 67.3842 125.015C65.3025 122.934 64.1331 120.11 64.1331 117.166V55.4998C64.1331 52.5559 65.3025 49.7325 67.3842 47.6509C69.4658 45.5692 72.2892 44.3998 75.2331 44.3998H87.5664C90.5103 44.3998 93.3336 45.5692 95.4153 47.6509C97.4969 49.7325 98.6664 52.5559 98.6664 55.4998V117.166C98.6664 120.11 97.4969 122.934 95.4153 125.015C93.3336 127.097 90.5103 128.266 87.5664 128.266V128.266Z" fill="black"/>
<path d="M131.856 128.266H119.523C116.579 128.266 113.756 127.097 111.674 125.015C109.592 122.934 108.423 120.11 108.423 117.166V35.7664C108.423 32.8225 109.592 29.9992 111.674 27.9176C113.756 25.8359 116.579 24.6664 119.523 24.6664H131.856C134.8 24.6664 137.623 25.8359 139.705 27.9176C141.787 29.9992 142.956 32.8225 142.956 35.7664V117.166C142.956 120.11 141.787 122.934 139.705 125.015C137.623 127.097 134.8 128.266 131.856 128.266Z" fill="black"/>
</svg>
