<svg width="250" height="129" viewBox="0 0 250 129" fill="none" xmlns="http://www.w3.org/2000/svg">
<path d="M246.531 81.3559C247.421 77.3524 247.865 73.2627 247.855 69.1615C247.855 37.7449 222.01 12.254 190.113 12.254C186.808 12.2516 183.509 12.5227 180.249 13.0643C174.918 9.73636 168.756 7.98099 162.472 8.00016C144.004 8.00016 129 22.7793 129 40.9913C128.981 46.8739 130.568 52.6501 133.592 57.6963C132.818 61.46 132.428 65.2922 132.425 69.1345C132.425 100.583 158.27 126.042 190.135 126.042C193.675 126.051 197.209 125.734 200.692 125.097C205.574 127.667 211.01 129.007 216.527 128.999C235.028 128.999 249.999 114.22 249.999 96.0082C250.03 90.9172 248.841 85.8929 246.531 81.3559ZM219.75 96.3188C217.07 100.035 213.13 102.998 208.025 105.078C202.92 107.157 196.889 108.203 189.956 108.203C181.667 108.203 174.734 106.752 169.281 103.916C165.501 101.927 162.241 99.0775 159.763 95.5976C157.303 92.1324 156.074 88.6672 156.074 85.3343C156.074 83.2546 156.884 81.4586 158.469 79.9461C160.047 78.4957 162.094 77.7395 164.49 77.7395C166.475 77.7395 168.176 78.3066 169.565 79.4734C170.888 80.5754 172.022 82.2148 172.935 84.3566C173.82 86.4079 174.938 88.3508 176.266 90.1473C177.403 91.6274 179.011 92.8563 181.089 93.834C183.201 94.8117 186.005 95.3141 189.462 95.3141C194.221 95.3141 198.129 94.3066 201.06 92.3215C203.96 90.3985 205.349 88.0676 205.349 85.2317C205.349 82.9954 204.622 81.229 203.11 79.8434C201.535 78.3931 199.485 77.2587 196.933 76.5025C194.315 75.6922 190.756 74.8333 186.342 73.9204C180.355 72.6591 175.269 71.1466 171.218 69.4451C167.091 67.7111 163.75 65.2857 161.289 62.2932C158.799 59.2358 157.57 55.3924 157.57 50.8847C157.528 46.7184 158.906 42.6621 161.478 39.3843C164.063 36.0758 167.814 33.491 172.7 31.7273C177.492 29.9637 183.196 29.0805 189.624 29.0805C194.794 29.0805 199.301 29.6801 203.083 30.8144C206.864 31.9488 210.08 33.5558 212.633 35.5086C215.185 37.4613 217.046 39.541 218.243 41.7206C219.439 43.9002 220.041 46.1014 220.041 48.2027C220.041 50.2175 219.253 52.0784 217.675 53.6855C216.91 54.4815 215.989 55.1107 214.969 55.5337C213.95 55.9566 212.853 56.1642 211.75 56.1433C209.608 56.1433 207.936 55.6382 206.772 54.6308C205.692 53.6855 204.565 52.2351 203.336 50.123C201.886 47.4464 200.152 45.3019 198.167 43.7895C196.211 42.3418 192.997 41.5855 188.522 41.5855C184.392 41.5855 181.022 42.3958 178.529 44.0163C176.133 45.5612 174.966 47.3573 174.966 49.4667C174.937 50.6753 175.352 51.8527 176.133 52.7753C177.084 53.869 178.254 54.7497 179.569 55.36C181.049 56.1039 182.601 56.6949 184.201 57.1237C185.821 57.5666 188.487 58.2283 192.176 59.0467C196.87 60.0244 201.157 61.1588 204.941 62.3229C208.787 63.5518 212.095 65.0237 214.804 66.7658C217.495 68.4644 219.734 70.7896 221.33 73.5423C222.875 76.2432 223.663 79.6544 223.663 83.5625C223.835 88.1343 222.456 92.6298 219.75 96.3188V96.3188Z" fill="black"/>
<path d="M112.397 103.814C108.731 98.8709 99.2526 91.0602 94.5788 87.789C88.4917 83.533 87.9905 83.1847 82.2759 86.2723C78.4641 88.3332 75.8453 90.288 71.9412 88.8465C68.0372 87.4049 59.9841 81.2952 53.424 72.5467C46.8639 63.7981 43.041 54.0497 42.7596 49.9103C42.4782 45.771 45.1286 43.8456 48.1616 40.7619C52.4364 36.4152 52.2834 35.5656 50.1796 28.5591C48.5377 23.1088 43.5337 11.8767 39.8119 6.98068C35.8332 1.72484 35.7161 2.53534 32.5456 3.34573C29.9626 4.01816 27.4467 4.92572 25.0292 6.05704C20.2913 8.30398 17.5473 10.3427 15.3512 13.6853C13.1551 17.0279 11.1862 25.3239 17.5748 42.3167C23.9635 59.3095 28.8787 68.2367 39.6466 82.6025C50.4145 96.9682 59.1139 105.113 72.1105 115.09C88.19 127.419 95.1772 126.479 99.0153 125.324C102.853 124.169 105.594 122.138 109.096 118.231C110.869 116.237 112.454 114.084 113.832 111.8C115.508 109 116.319 109.117 112.397 103.814Z" stroke="black" stroke-width="5.2622" stroke-miterlimit="10"/>
</svg>
